<svg width="14" height="14" viewBox="0 0 14 14" fill="none" xmlns="http://www.w3.org/2000/svg">
<path fill-rule="evenodd" clip-rule="evenodd" d="M7.63633 2.38618C7.92923 2.09328 8.4041 2.09328 8.69699 2.38617L12.7803 6.46946C12.921 6.61012 13 6.80088 13 6.99979C13 7.19871 12.921 7.38947 12.7803 7.53013L8.697 11.6135C8.4041 11.9064 7.92923 11.9064 7.63634 11.6135C7.34344 11.3206 7.34344 10.8457 7.63634 10.5528L10.4393 7.7498H1.75C1.33579 7.7498 1 7.41401 1 6.9998C1 6.58558 1.33579 6.2498 1.75 6.2498H10.4393L7.63634 3.44684C7.34344 3.15394 7.34344 2.67907 7.63633 2.38618Z" fill="white"/>
</svg>
