<svg width="35" height="47" viewBox="0 0 35 47" fill="none" xmlns="http://www.w3.org/2000/svg">
<path d="M34.8746 18.871C35.5911 14.0802 31.9437 11.5049 26.9562 9.787L28.5742 3.29742L24.6238 2.31308L23.0487 8.63179C22.0102 8.37277 20.9436 8.12871 19.8836 7.88676L21.4701 1.52634L17.5222 0.541992L15.9033 7.02946C15.0439 6.83379 14.1998 6.6404 13.3808 6.43663L13.3854 6.41622L7.93773 5.05584L6.88687 9.27512C6.88687 9.27512 9.81774 9.94695 9.75598 9.9883C11.3557 10.3876 11.645 11.4465 11.5969 12.2859L9.75386 19.679C9.86402 19.707 10.0069 19.7475 10.1646 19.8108C10.0328 19.7781 9.89252 19.7424 9.747 19.7075L7.16366 30.0643C6.96817 30.5503 6.47195 31.2797 5.35351 31.0027C5.39311 31.0601 2.4823 30.2862 2.4823 30.2862L0.520996 34.8081L5.6618 36.0897C6.61817 36.3295 7.55536 36.5804 8.4783 36.8164L6.84358 43.3804L10.7894 44.3648L12.4083 37.8704C13.4863 38.1631 14.5324 38.433 15.5565 38.6874L13.9431 45.1512L17.8936 46.1355L19.5282 39.5838C26.2645 40.8587 31.3296 40.3447 33.4616 34.2517C35.1795 29.3462 33.3761 26.5167 29.8321 24.6715C32.4134 24.0762 34.3576 22.3785 34.876 18.8715L34.8748 18.8706L34.8746 18.871ZM25.8488 31.5274C24.628 36.433 16.3686 33.7812 13.6907 33.1162L15.86 24.42C18.5377 25.0885 27.1247 26.4114 25.849 31.5274H25.8488ZM27.0705 18.7999C25.9569 23.262 19.0825 20.9951 16.8525 20.4392L18.8192 12.5523C21.0492 13.1082 28.2307 14.1456 27.0709 18.7999H27.0705Z" fill="white"/>
</svg>
