<svg width="16" height="16" viewBox="0 0 16 16" fill="none" xmlns="http://www.w3.org/2000/svg">
<g clip-path="url(#clip0_1_2371)">
<path fill-rule="evenodd" clip-rule="evenodd" d="M11.2499 3.00016C11.2499 2.4939 10.8395 2.0835 10.3333 2.0835H10.2798C9.85134 2.0835 9.47364 2.36452 9.35053 2.77488L9.00794 3.91683H10.3333C10.8395 3.91683 11.2499 3.50642 11.2499 3.00016ZM12.57 3.91683C12.686 3.63415 12.7499 3.32462 12.7499 3.00016C12.7499 1.66547 11.6679 0.583496 10.3333 0.583496H10.2798C9.27507 0.583496 8.37993 1.19047 7.99992 2.10268C7.6199 1.19047 6.72477 0.583496 5.72007 0.583496H5.66659C4.3319 0.583496 3.24992 1.66547 3.24992 3.00016C3.24992 3.32462 3.31386 3.63415 3.42983 3.91683H2.33325C1.36675 3.91683 0.583252 4.70033 0.583252 5.66683C0.583252 6.63333 1.36675 7.41683 2.33325 7.41683H13.6666C14.6331 7.41683 15.4166 6.63333 15.4166 5.66683C15.4166 4.70033 14.6331 3.91683 13.6666 3.91683H12.57ZM5.66659 3.91683H6.9919L6.64931 2.77488C6.5262 2.36452 6.1485 2.0835 5.72007 2.0835H5.66659C5.16032 2.0835 4.74992 2.4939 4.74992 3.00016C4.74992 3.50642 5.16032 3.91683 5.66659 3.91683ZM4.2871 7.91671L4.38087 7.91683H11.619L11.7127 7.91671C12.0948 7.91597 12.4601 7.91527 12.7773 8.02626C13.3374 8.22226 13.7778 8.66265 13.9738 9.22279C14.0848 9.53997 14.0841 9.90523 14.0834 10.2873L14.0833 10.3811L14.0833 10.5301C14.0837 11.5824 14.084 12.3017 13.8728 12.9054C13.4959 13.9826 12.649 14.8295 11.5718 15.2064C10.9681 15.4176 10.2489 15.4173 9.1965 15.4169L9.04754 15.4168H6.9523L6.80334 15.4169C5.75098 15.4173 5.03169 15.4176 4.42804 15.2064C3.35086 14.8295 2.50394 13.9826 2.12702 12.9054C1.9158 12.3017 1.9161 11.5824 1.91654 10.5301L1.91659 10.3811L1.91647 10.2873C1.91573 9.90523 1.91502 9.53997 2.02601 9.22279C2.22201 8.66265 2.66241 8.22226 3.22254 8.02626C3.53973 7.91527 3.90499 7.91597 4.2871 7.91671Z" fill="#43A1F7"/>
</g>
<defs>
<clipPath id="clip0_1_2371">
<rect width="16" height="16" fill="white"/>
</clipPath>
</defs>
</svg>
