<svg width="14" height="16" viewBox="0 0 14 16" fill="none" xmlns="http://www.w3.org/2000/svg">
<path fill-rule="evenodd" clip-rule="evenodd" d="M7.00008 1.3335L7.32313 0.656637C7.09075 0.54573 6.81773 0.561781 6.59995 0.699153C6.38217 0.836525 6.25008 1.07601 6.25008 1.3335C6.25008 1.87504 6.27677 2.47207 6.30304 3.05987L6.30305 3.05993L6.30306 3.06026C6.31013 3.21839 6.31717 3.37585 6.32365 3.53139C6.35487 4.28078 6.37387 4.99617 6.33488 5.62005C6.29481 6.26104 6.19742 6.71319 6.05478 6.98487C5.98909 7.11 5.92812 7.16868 5.88441 7.1976C5.84619 7.22288 5.78493 7.25016 5.66675 7.25016C5.46475 7.25016 5.35748 7.20232 5.28922 7.15194C5.21387 7.09632 5.11952 6.98765 5.02977 6.76329C4.83821 6.28439 4.75008 5.49707 4.75008 4.3335C4.75008 4.04162 4.58075 3.77626 4.31604 3.6533C4.05133 3.53034 3.73933 3.57212 3.51629 3.76039L4.00008 4.3335C3.51629 3.76039 3.51607 3.76058 3.51584 3.76077L3.51534 3.7612L3.51416 3.7622L3.51118 3.76474L3.5027 3.77203L3.47606 3.7954C3.45414 3.81485 3.42408 3.84203 3.38703 3.87674C3.313 3.94611 3.21077 4.04581 3.08981 4.1741C2.84844 4.4301 2.52929 4.80331 2.21021 5.27986C1.57493 6.22866 0.916748 7.62278 0.916748 9.3335C0.916748 12.7808 3.58867 15.4168 7.00008 15.4168C10.4115 15.4168 13.0834 12.7808 13.0834 9.3335C13.0834 6.34016 11.6152 4.15969 10.194 2.75469C9.48267 2.0514 8.77322 1.5316 8.24115 1.18697C7.97448 1.01424 7.75059 0.884363 7.59085 0.796454C7.51093 0.752471 7.44691 0.718908 7.40144 0.695658C7.37871 0.684031 7.36059 0.674975 7.34743 0.668478L7.33145 0.660646L7.32631 0.658164L7.32448 0.657281L7.32374 0.656929C7.32342 0.656778 7.32313 0.656637 7.00008 1.3335Z" fill="white"/>
</svg>
